<svg xmlns="http://www.w3.org/2000/svg" width="119.505" height="29.078" viewBox="0 0 119.505 29.078"><defs><style>.a{fill:#fff;}</style></defs><g transform="translate(0 0)"><path class="a" d="M9.437,26.4a16.589,16.589,0,0,1,3.926.447A8.51,8.51,0,0,1,16.4,28.187a6.646,6.646,0,0,1,1.947,2.266,7.412,7.412,0,0,1,.67,3.256v8.937a2.47,2.47,0,0,1-.575,1.692,5.367,5.367,0,0,1-1.373,1.149c-1.724,1.053-4.149,1.564-7.309,1.564a15.385,15.385,0,0,1-3.8-.415,8.567,8.567,0,0,1-2.9-1.213A5.767,5.767,0,0,1,1.17,43.381,5.966,5.966,0,0,1,.5,40.508a5.438,5.438,0,0,1,1.628-4.245A8.881,8.881,0,0,1,7.2,34.412l5.235-.575v-.223a1.754,1.754,0,0,0-1.021-1.66,7.028,7.028,0,0,0-2.937-.511,13.018,13.018,0,0,0-2.968.319,16.49,16.49,0,0,0-2.585.8,3.081,3.081,0,0,1-.894-1.085,3.179,3.179,0,0,1-.351-1.532,2.46,2.46,0,0,1,.511-1.66A3.6,3.6,0,0,1,3.724,27.23a12,12,0,0,1,2.745-.638A24.739,24.739,0,0,1,9.437,26.4Zm.319,15.672a8.65,8.65,0,0,0,1.5-.128,3.605,3.605,0,0,0,1.213-.383V38.37L9.6,38.625a4.906,4.906,0,0,0-1.851.479,1.3,1.3,0,0,0-.734,1.213,1.6,1.6,0,0,0,.606,1.309A4.028,4.028,0,0,0,9.757,42.072Z" transform="translate(-0.5 -18.005)"/><path class="a" d="M80.236,46.347a4.852,4.852,0,0,1-1.628.734,9.542,9.542,0,0,1-2.426.287,7.4,7.4,0,0,1-2.681-.415,2.775,2.775,0,0,1-1.564-1.277c-.255-.447-.511-1.085-.862-1.883-.319-.8-.67-1.724-1.053-2.713s-.766-2.075-1.149-3.224c-.415-1.149-.766-2.266-1.149-3.383s-.67-2.2-.989-3.224C66.447,30.2,66.192,29.3,66,28.5a5.1,5.1,0,0,1,3.543-1.4,4.231,4.231,0,0,1,2.3.575,3.549,3.549,0,0,1,1.341,2.17l1.564,6.1c.287,1.213.575,2.266.83,3.256.255.958.479,1.724.606,2.266h.192c.511-1.979,1.053-4.149,1.6-6.543s1.053-4.756,1.532-7.054a6.651,6.651,0,0,1,1.532-.575,7.574,7.574,0,0,1,1.66-.192,4.265,4.265,0,0,1,2.362.606,2.263,2.263,0,0,1,.958,2.075,8.752,8.752,0,0,1-.287,1.851c-.192.8-.447,1.724-.766,2.745s-.67,2.107-1.085,3.256-.83,2.266-1.245,3.352-.83,2.107-1.245,3.064C80.938,44.943,80.555,45.741,80.236,46.347Z" transform="translate(-45.093 -18.482)"/><path class="a" d="M145.908,46.952a13.8,13.8,0,0,1-4.373-.67,9.743,9.743,0,0,1-3.511-1.979,9.373,9.373,0,0,1-2.362-3.32,11.674,11.674,0,0,1-.862-4.66,10.937,10.937,0,0,1,.862-4.533,8.791,8.791,0,0,1,2.266-3.128,9.255,9.255,0,0,1,3.192-1.787,12.074,12.074,0,0,1,3.671-.575,11.531,11.531,0,0,1,3.862.638,9.3,9.3,0,0,1,3,1.756,7.45,7.45,0,0,1,1.947,2.681,8.034,8.034,0,0,1,.7,3.383,2.722,2.722,0,0,1-.766,2.075,3.784,3.784,0,0,1-2.107.926l-9.863,1.468a3.3,3.3,0,0,0,1.787,1.979,6.942,6.942,0,0,0,3.128.67,10.989,10.989,0,0,0,3.1-.415,9.733,9.733,0,0,0,2.362-.989,3.313,3.313,0,0,1,1.085,1.117,2.946,2.946,0,0,1,.447,1.532,2.878,2.878,0,0,1-1.692,2.681,9.2,9.2,0,0,1-2.873.926A20.163,20.163,0,0,1,145.908,46.952Zm-1.117-15.672a3.853,3.853,0,0,0-1.66.319,3.435,3.435,0,0,0-1.149.83,3.593,3.593,0,0,0-.67,1.117,4.327,4.327,0,0,0-.255,1.245l6.831-1.117a3.128,3.128,0,0,0-.894-1.6A2.78,2.78,0,0,0,144.791,31.279Z" transform="translate(-91.933 -17.937)"/><path class="a" d="M218.457,34.024a2.184,2.184,0,0,0-.7-1.819,2.884,2.884,0,0,0-1.883-.575,6.361,6.361,0,0,0-1.564.192,3.679,3.679,0,0,0-1.341.606V46.281a8.121,8.121,0,0,1-1.245.255,10.711,10.711,0,0,1-1.787.128,7.751,7.751,0,0,1-1.564-.128,3.06,3.06,0,0,1-1.181-.479,2.132,2.132,0,0,1-.734-.989,4.577,4.577,0,0,1-.255-1.628V31.471a3.175,3.175,0,0,1,.447-1.756,5.746,5.746,0,0,1,1.245-1.245,11.708,11.708,0,0,1,3.415-1.564,15.8,15.8,0,0,1,4.564-.606c3,0,5.33.67,6.958,1.979a6.664,6.664,0,0,1,2.426,5.49v12.48a8.121,8.121,0,0,1-1.245.255,10.711,10.711,0,0,1-1.787.128,7.751,7.751,0,0,1-1.564-.128,3.059,3.059,0,0,1-1.181-.479,2.131,2.131,0,0,1-.734-.989,4.577,4.577,0,0,1-.255-1.628V34.024Z" transform="translate(-140.543 -17.937)"/><path class="a" d="M276.4,23.062a11.674,11.674,0,0,1,.8-4.564,9.331,9.331,0,0,1,2.2-3.224,8.991,8.991,0,0,1,3.32-1.883,13.042,13.042,0,0,1,4.086-.606,8.391,8.391,0,0,1,1.564.128,4.892,4.892,0,0,1,1.245.351V6.783a8.747,8.747,0,0,1,1.277-.255,10.964,10.964,0,0,1,1.788-.128,7.751,7.751,0,0,1,1.564.128,3.059,3.059,0,0,1,1.181.479,2.132,2.132,0,0,1,.734.989,4.578,4.578,0,0,1,.255,1.628V28.552a3.426,3.426,0,0,1-1.756,3,11.513,11.513,0,0,1-3,1.341,15.534,15.534,0,0,1-8.905-.16,9.714,9.714,0,0,1-3.479-2.075A8.843,8.843,0,0,1,277.1,27.4,12.513,12.513,0,0,1,276.4,23.062Zm11.331-4.979a4.309,4.309,0,0,0-3.32,1.245,5.372,5.372,0,0,0-1.149,3.766,5.493,5.493,0,0,0,1.085,3.735,3.926,3.926,0,0,0,3.128,1.245,3.415,3.415,0,0,0,1.309-.223,3.3,3.3,0,0,0,.894-.511V18.561A3.912,3.912,0,0,0,287.731,18.082Z" transform="translate(-188.335 -4.389)"/><path class="a" d="M351.7,3.707a3.7,3.7,0,0,1,7.405,0,3.772,3.772,0,0,1-6.384,2.554A3.6,3.6,0,0,1,351.7,3.707Zm7.118,24.737c-.287.064-.734.128-1.309.223a10.445,10.445,0,0,1-1.724.128,7.751,7.751,0,0,1-1.564-.128,3.06,3.06,0,0,1-1.181-.479,2.131,2.131,0,0,1-.734-.989,4.578,4.578,0,0,1-.255-1.628V9.325c.287-.064.734-.128,1.309-.223a10.445,10.445,0,0,1,1.724-.128,7.752,7.752,0,0,1,1.564.128,3.06,3.06,0,0,1,1.181.479,2.131,2.131,0,0,1,.734.989,4.578,4.578,0,0,1,.255,1.628Z" transform="translate(-239.6 -0.1)"/></g></svg>