<svg xmlns="http://www.w3.org/2000/svg" width="30" height="35.391" viewBox="0 0 30 35.391"><g transform="translate(-52.556 -10)"><path d="M417.74,463.53h1.755v.787H417.74Z" transform="translate(-338.259 -420.091)"/><path d="M257.448,12.2h1.315v.582a.738.738,0,0,0,.737.737h4.689a.738.738,0,0,0,.737-.737V12.2h1.315V16.59h.885V11.762a.442.442,0,0,0-.442-.442h-1.758v-.582a.738.738,0,0,0-.737-.737H259.5a.738.738,0,0,0-.737.737v.582h-1.758a.442.442,0,0,0-.442.442V16.59h.885Z" transform="translate(-188.965)"/><path d="M53.5,321.066H59.19v-1.11a.442.442,0,0,1,.442-.442h3.144a.442.442,0,0,1,.442.442v1.11h5.688a.982.982,0,0,0,.946-1.013v-6.185a.982.982,0,0,0-.946-1.013H53.5a.982.982,0,0,0-.945,1.013v6.185A.982.982,0,0,0,53.5,321.066Z" transform="translate(0 -280.526)"/><path d="M69.852,435.727V432.5a1.771,1.771,0,0,1-.946.273H63.218v.733a2.014,2.014,0,1,1-4.029,0v-.733H53.5a1.771,1.771,0,0,1-.945-.273v3.226a.982.982,0,0,0,.945,1.013h15.4A.982.982,0,0,0,69.852,435.727Z" transform="translate(0 -391.349)"/><path d="M155.656,418.568a1.131,1.131,0,0,0,1.129-1.13v-2.286h-2.259v2.286A1.131,1.131,0,0,0,155.656,418.568Z" transform="translate(-94.452 -375.281)"/><path d="M251.1,150.258h10.559a.438.438,0,0,1,.438.438v3.52a.438.438,0,0,1-.437.438H251.1a.438.438,0,0,1-.437-.437V150.7a.438.438,0,0,1,.438-.437Z" transform="translate(-183.503 -129.917)"/><path d="M214.995,105.5H198.276a1.319,1.319,0,0,0-1.317,1.317v10.233h.152a2.125,2.125,0,0,1,2.088,2.156v.7h.834v-2.087a2.2,2.2,0,0,1,2.2-2.2h8.8a2.2,2.2,0,0,1,2.2,2.2v13.2h1.757a1.319,1.319,0,0,0,1.317-1.317V106.822A1.319,1.319,0,0,0,214.995,105.5Zm-1.757,7.257a1.324,1.324,0,0,1-1.322,1.322H201.356a1.324,1.324,0,0,1-1.322-1.322v-3.52a1.324,1.324,0,0,1,1.322-1.322h10.559a1.324,1.324,0,0,1,1.322,1.322Z" transform="translate(-133.756 -88.463)"/><path d="M260.779,254.682h-8.8A1.319,1.319,0,0,0,250.662,256v2.087h1.744a1.867,1.867,0,0,1,1.83,1.9V269.2h7.86V256A1.319,1.319,0,0,0,260.779,254.682Z" transform="translate(-183.499 -226.641)"/><path d="M116.733,267.561a.982.982,0,0,1,.945-1.013h4.3a.982.982,0,0,1,.946,1.013v1.14h.885v-1.14a1.867,1.867,0,0,0-1.83-1.9h-4.3a1.867,1.867,0,0,0-1.83,1.9v1.14h.885Z" transform="translate(-58.625 -236.813)"/></g></svg>