<svg xmlns="http://www.w3.org/2000/svg" width="32" height="31.684" viewBox="0 0 32 31.684"><g transform="translate(-3 -1)"><path d="M5,53H6.056v4.225H5Z" transform="translate(-0.944 -24.54)"/><path d="M23.067,48.584A1.586,1.586,0,0,0,21.483,47H4.584A1.586,1.586,0,0,0,3,48.584v.528H23.067Z" transform="translate(0 -21.709)"/><path d="M17,57.225h1.056V54.056h1.056v3.168h1.056V53H17Z" transform="translate(-6.607 -24.54)"/><path d="M9,57.225h1.056V54.056h1.056v3.168h1.056V53H9Z" transform="translate(-2.832 -24.54)"/><path d="M22.112,15.146V4.056a1.056,1.056,0,1,0-2.112,0V22.011h2.112Z" transform="translate(-8.023 -0.944)"/><path d="M15.528,41a.529.529,0,0,0-.528.528v1.584h7.393V41.528A.529.529,0,0,0,21.865,41Z" transform="translate(-5.663 -18.877)"/><path d="M25,57.225h1.056V54.056h1.056v3.168h1.056V53H25Z" transform="translate(-10.382 -24.54)"/><path d="M43.426,17.7a1.586,1.586,0,0,0-1.584-1.584h-.528v-.528A1.586,1.586,0,0,0,39.73,14a1.57,1.57,0,0,0-1.421.9l-.21.435-.452-.171a1.543,1.543,0,0,0-1.444.164l-.568.384-.227-.647a1.578,1.578,0,0,0-3.036.19l-.117.553-.544-.155a1.4,1.4,0,0,0-1.118.1l-.432.211-.25-.411a2.093,2.093,0,0,0-1.8-1.021A2.114,2.114,0,0,0,26,16.64v1.153a1.566,1.566,0,0,1,.528-.1Z" transform="translate(-10.854 -6.135)"/><path d="M33,57.225h1.056V54.056h1.056v3.168h1.056V53H33Z" transform="translate(-14.158 -24.54)"/><path d="M29.659,34.769a1.577,1.577,0,0,1,.445,1.1v1.584h3.7a2.643,2.643,0,0,1,2.64,2.64v1.584H35.385v2.112h6.056A1.587,1.587,0,0,0,43.013,42.4l1.3-13.4H29.1Zm9.95,6.9h1.584l.206-1.65,1.048.131-.206,1.65a1.057,1.057,0,0,1-1.048.925H39.609Zm-2.112,0h1.056V42.73H37.5ZM34.328,30.056h1.056v1.056H34.328Zm-2.112,0h1.056v1.056H32.216Zm-2.112,0H31.16v1.056H30.1Z" transform="translate(-12.318 -13.214)"/><path d="M43.955,23H26.528a.529.529,0,0,0-.528.528v1.056a.529.529,0,0,0,.528.528H43.955a.529.529,0,0,0,.528-.528V23.528A.529.529,0,0,0,43.955,23Z" transform="translate(-10.854 -10.382)"/><circle cx="1.5" cy="1.5" r="1.5" transform="translate(32 4)"/><circle cx="1.5" cy="1.5" r="1.5" transform="translate(20 3)"/><circle cx="2" cy="2" r="2" transform="translate(27 1)"/><circle cx="1.5" cy="1.5" r="1.5" transform="translate(3 16)"/><circle cx="2" cy="2" r="2" transform="translate(6 9)"/><circle cx="1.5" cy="1.5" r="1.5" transform="translate(3 4)"/></g></svg>