<svg xmlns="http://www.w3.org/2000/svg" width="30" height="30" viewBox="0 0 30 30"><g transform="translate(-0.002)"><g transform="translate(0.002)"><path d="M15,0A15.059,15.059,0,0,0,0,15a14.883,14.883,0,0,0,2.1,7.618L.047,28.843a.878.878,0,0,0,1.112,1.112L7.385,27.9A14.883,14.883,0,0,0,15,30,15,15,0,0,0,15,0Zm0,26.426a2.637,2.637,0,1,1,2.637-2.637A2.64,2.64,0,0,1,15,26.426ZM18.707,13.78,16.76,15.728v1.909a1.758,1.758,0,0,1-3.516,0V15.728a3.492,3.492,0,0,1,1.03-2.486l1.948-1.948a1.87,1.87,0,0,0,.538-1.487,1.841,1.841,0,0,0-1.839-1.839,1.68,1.68,0,0,0-1.677,1.677,1.758,1.758,0,0,1-3.516,0,5.2,5.2,0,0,1,5.193-5.193,5.36,5.36,0,0,1,5.354,5.354A5.34,5.34,0,0,1,18.707,13.78Z" transform="translate(-0.002)"/></g></g></svg>