<svg xmlns="http://www.w3.org/2000/svg" width="21.602" height="24.277" viewBox="0 0 21.602 24.277">
  <path id="Path_35" data-name="Path 35" d="M-9.528,3.513A4.061,4.061,0,0,0-7.8,4.6a3.277,3.277,0,0,0,1.848.016A3.817,3.817,0,0,0-4.243,3.556,6.812,6.812,0,0,0-3.33,2.417q.451-.688.875-1.461t.811-1.5q.387-.73.73-1.257L1.493.612A1.731,1.731,0,0,0,2.739,1.2,1.69,1.69,0,0,0,3.964.634l.859-.881a1.678,1.678,0,0,0,.569-1.219,1.787,1.787,0,0,0-.6-1.23l-8.1-8.11a1.8,1.8,0,0,0-1.246-.6,1.66,1.66,0,0,0-1.225.569l-.87.859a1.693,1.693,0,0,0-.564,1.225,1.778,1.778,0,0,0,.6,1.246l2.406,2.417q-.526.333-1.251.72t-1.5.811q-.773.424-1.466.875a6.724,6.724,0,0,0-1.144.913A3.9,3.9,0,0,0-10.629-.064a3.215,3.215,0,0,0,.016,1.848A4.153,4.153,0,0,0-9.528,3.513ZM6.059-3.147,10-7.079a2.548,2.548,0,0,0,.843-1.848,2.743,2.743,0,0,0-.908-1.88l-.548-.569a5.73,5.73,0,0,1-1.074,1.031,9.87,9.87,0,0,1-1.418.9,6.268,6.268,0,0,1-1.337.537q-.6.15-.8-.075a.227.227,0,0,1-.075-.183.334.334,0,0,1,.1-.226,10.588,10.588,0,0,0,1.074-1.246,6.135,6.135,0,0,0,.757-1.391A6.524,6.524,0,0,0,7-13.75L1.783-18.981a1.772,1.772,0,0,0-1.166-.548,1.791,1.791,0,0,0-1.235.4,2.4,2.4,0,0,0-.811,1.375q-.322,1.289-.623,2.261t-.6,1.719q-.3.747-.585,1.348ZM-6.789,2.116a1.2,1.2,0,0,1-.87-.36A1.171,1.171,0,0,1-8.024.892,1.183,1.183,0,0,1-7.659.016a1.2,1.2,0,0,1,.87-.36,1.192,1.192,0,0,1,.875.36,1.192,1.192,0,0,1,.36.875,1.179,1.179,0,0,1-.36.865A1.192,1.192,0,0,1-6.789,2.116Z" transform="translate(10.757 19.533)" fill="#333"/>
</svg>
