<svg xmlns="http://www.w3.org/2000/svg" width="28.566" height="28.558" viewBox="0 0 28.566 28.558"><path d="M20.806,15.658l-3.112,3.013a21.253,21.253,0,0,1-4.48-3.468,21.589,21.589,0,0,1-3.488-4.5l3.012-3.05L5.133,0,1.386,3.722A4.713,4.713,0,0,0,.469,9.109,41.358,41.358,0,0,0,8.411,20.147a41.356,41.356,0,0,0,11.038,7.943,4.668,4.668,0,0,0,2.043.469,4.73,4.73,0,0,0,3.344-1.387l3.729-3.742ZM23.258,25.6a2.482,2.482,0,0,1-2.835.488A39.1,39.1,0,0,1,9.988,18.57,39.1,39.1,0,0,1,2.474,8.134,2.48,2.48,0,0,1,2.96,5.3L5.123,3.154,9.6,7.656l-2.566,2.6.31.7a21.588,21.588,0,0,0,4.295,5.83,21.2,21.2,0,0,0,5.808,4.27l.686.3,2.648-2.564,4.636,4.643ZM21.49,14.12a7.052,7.052,0,1,0-7.052-7.052A7.06,7.06,0,0,0,21.49,14.12Zm0-11.874a4.822,4.822,0,1,1-4.822,4.822A4.828,4.828,0,0,1,21.49,2.246Zm2.819,5.965H20.291V3.528h2.23V5.981h1.787Zm0,0" transform="translate(0.001 0)"/></svg>