<svg xmlns="http://www.w3.org/2000/svg" width="34" height="39.757" viewBox="0 0 34 39.757"><g transform="translate(-37.068)"><g transform="translate(37.068)"><g transform="translate(0)"><path d="M38.5,208.28a.816.816,0,0,0-.589-.265h-.017a.824.824,0,0,0-.605,1.384l.584.632,1.166-1.167Z" transform="translate(-37.068 -191.863)"/><path d="M67.4,240.506a4.289,4.289,0,0,0-1.1-2.351l-4.858-5.263-1.167,1.167,4.738,5.132A4.317,4.317,0,0,0,67.4,240.506Z" transform="translate(-58.47 -214.808)"/><path d="M141.717,0h-2.209V1.608a2.209,2.209,0,1,1-1.473,0V0H129.2V1.608a2.209,2.209,0,1,1-1.473,0V0h-8.835V1.608a2.209,2.209,0,1,1-1.473,0V0h-2.209a.737.737,0,0,0-.736.736V19.142c0,.023-.011.043-.013.066l2.9,3.14A5.76,5.76,0,0,1,118.89,26.2l.524.524a.736.736,0,1,1-1.041,1.041l-.537-.537a5.792,5.792,0,0,1-3.36-1.315V39.02a.737.737,0,0,0,.736.736h26.5a.737.737,0,0,0,.736-.736V.736A.737.737,0,0,0,141.717,0ZM120.955,17.375l-2.209,2.945a.736.736,0,0,1-.537.293l-.052,0a.735.735,0,0,1-.521-.216l-1.472-1.472a.736.736,0,0,1,1.041-1.041l.872.872,1.7-2.266a.736.736,0,0,1,1.178.883Zm0-8.1h0l-2.209,2.945a.736.736,0,0,1-.537.293l-.052,0a.735.735,0,0,1-.521-.216l-1.472-1.472a.736.736,0,0,1,1.041-1.041l.872.872,1.7-2.266a.736.736,0,0,1,1.178.884Zm19.29,26.8H123.311a.736.736,0,0,1,0-1.472h16.933a.736.736,0,1,1,0,1.472Zm0-8.1H123.311a.736.736,0,0,1,0-1.473h16.933a.736.736,0,1,1,0,1.473Zm0-8.1H123.311a.736.736,0,0,1,0-1.472h16.933a.736.736,0,1,1,0,1.472Zm0-8.1H123.311a.736.736,0,0,1,0-1.472h16.933a.736.736,0,1,1,0,1.472Z" transform="translate(-108.453)"/><circle cx="0.736" cy="0.736" r="0.736" transform="translate(8.968 2.945)"/><circle cx="0.736" cy="0.736" r="0.736" transform="translate(29.583 2.945)"/><circle cx="0.736" cy="0.736" r="0.736" transform="translate(19.275 2.945)"/></g></g></g></svg>