<svg xmlns="http://www.w3.org/2000/svg" width="30" height="36" viewBox="0 0 30 36"><g transform="translate(-7 -2)"><path d="M35.2,2H8.8A1.8,1.8,0,0,0,7,3.8v6.6H37V3.8A1.8,1.8,0,0,0,35.2,2Zm-18,5.52a.6.6,0,0,1-.6.6H10a.6.6,0,0,1-.6-.6V5.6A.6.6,0,0,1,10,5h6.6a.6.6,0,0,1,.6.6ZM25.6,8.6a1.8,1.8,0,1,1,1.8-1.8A1.8,1.8,0,0,1,25.6,8.6Zm4.8,0H29.2V7.4h1.2Zm0-2.4H29.2V5h1.2Zm2.4,2.4H31.6V7.4h1.2Zm0-2.4H31.6V5h1.2Zm2.4,2.4H34V7.4h1.2Zm0-2.4H34V5h1.2Z"/><path d="M37.085,31.031a5.975,5.975,0,0,0-4.556-2.79A.59.59,0,0,1,32,27.648a.6.6,0,0,1,.662-.6,7.166,7.166,0,0,1,5.425,3.321.6.6,0,0,1-.233.862A.589.589,0,0,1,37.085,31.031Z" transform="translate(-10 -10.018)"/><path d="M34.273,40.41c-2.221,0-2.221,3.108-4.442,3.108s-2.219-3.108-4.439-3.108c-1.9,0-2.179,2.263-3.605,2.922A7.189,7.189,0,0,0,35.036,40.57,1.937,1.937,0,0,0,34.273,40.41Z" transform="translate(-5.915 -15.364)"/><ellipse cx="1" cy="0.5" rx="1" ry="0.5" transform="translate(15 21)"/><ellipse cx="1" cy="1.5" rx="1" ry="1.5" transform="translate(17 22)"/><path d="M7,18V42.6a1.8,1.8,0,0,0,1.8,1.8H35.2A1.8,1.8,0,0,0,37,42.6V18ZM22,42A10.8,10.8,0,1,1,32.8,31.2,10.8,10.8,0,0,1,22,42Z" transform="translate(0 -6.4)"/><path d="M25.6,24a9.6,9.6,0,1,0,9.6,9.6A9.6,9.6,0,0,0,25.6,24Zm0,18A8.4,8.4,0,1,1,34,33.6,8.4,8.4,0,0,1,25.6,42Z" transform="translate(-3.6 -8.8)"/></g></svg>